<mxfile host="app.diagrams.net" agent="Mozilla/5.0 (Windows NT 10.0; Win64; x64) AppleWebKit/537.36 (KHTML, like Gecko) Chrome/128.0.0.0 Safari/537.36" version="24.7.10">
  <diagram name="Page-1" id="xgcRqCT3RSKufPvNGvTS">
    <mxGraphModel grid="1" page="1" gridSize="10" guides="1" tooltips="1" connect="1" arrows="1" fold="1" pageScale="1" pageWidth="827" pageHeight="1169" math="0" shadow="0">
      <root>
        <mxCell id="0" />
        <mxCell id="1" parent="0" />
        <mxCell id="F6PLgcAM8BDR_C2OyBRy-3" value="" style="edgeStyle=orthogonalEdgeStyle;rounded=0;orthogonalLoop=1;jettySize=auto;html=1;" edge="1" parent="1" source="F6PLgcAM8BDR_C2OyBRy-1" target="F6PLgcAM8BDR_C2OyBRy-2">
          <mxGeometry relative="1" as="geometry" />
        </mxCell>
        <mxCell id="F6PLgcAM8BDR_C2OyBRy-1" value="Multiple Images from UAV" style="rounded=1;whiteSpace=wrap;html=1;fillColor=#FFB570;" vertex="1" parent="1">
          <mxGeometry x="120" y="120" width="120" height="60" as="geometry" />
        </mxCell>
        <mxCell id="F6PLgcAM8BDR_C2OyBRy-8" style="edgeStyle=orthogonalEdgeStyle;rounded=0;orthogonalLoop=1;jettySize=auto;html=1;exitX=1;exitY=0.5;exitDx=0;exitDy=0;entryX=0;entryY=0.5;entryDx=0;entryDy=0;" edge="1" parent="1" source="F6PLgcAM8BDR_C2OyBRy-2" target="F6PLgcAM8BDR_C2OyBRy-4">
          <mxGeometry relative="1" as="geometry" />
        </mxCell>
        <mxCell id="F6PLgcAM8BDR_C2OyBRy-2" value="Image Stitching" style="whiteSpace=wrap;html=1;rounded=1;fillColor=#ffc88a;strokeColor=#000000;" vertex="1" parent="1">
          <mxGeometry x="280" y="120" width="120" height="60" as="geometry" />
        </mxCell>
        <mxCell id="F6PLgcAM8BDR_C2OyBRy-4" value="Image 1" style="whiteSpace=wrap;html=1;aspect=fixed;fillColor=#fee086;strokeColor=#000000;" vertex="1" parent="1">
          <mxGeometry x="440" y="120" width="60" height="60" as="geometry" />
        </mxCell>
        <mxCell id="F6PLgcAM8BDR_C2OyBRy-12" style="edgeStyle=orthogonalEdgeStyle;rounded=0;orthogonalLoop=1;jettySize=auto;html=1;exitX=0.5;exitY=1;exitDx=0;exitDy=0;" edge="1" parent="1" source="F6PLgcAM8BDR_C2OyBRy-5">
          <mxGeometry relative="1" as="geometry">
            <mxPoint x="500" y="280" as="targetPoint" />
          </mxGeometry>
        </mxCell>
        <mxCell id="F6PLgcAM8BDR_C2OyBRy-5" value="Image 2" style="whiteSpace=wrap;html=1;aspect=fixed;fillColor=#f3b344;strokeColor=#000000;" vertex="1" parent="1">
          <mxGeometry x="470" y="160" width="60" height="60" as="geometry" />
        </mxCell>
        <mxCell id="F6PLgcAM8BDR_C2OyBRy-14" value="" style="edgeStyle=orthogonalEdgeStyle;rounded=0;orthogonalLoop=1;jettySize=auto;html=1;exitX=0.25;exitY=1;exitDx=0;exitDy=0;" edge="1" parent="1" source="F6PLgcAM8BDR_C2OyBRy-4" target="F6PLgcAM8BDR_C2OyBRy-13">
          <mxGeometry relative="1" as="geometry">
            <mxPoint x="500" y="280" as="targetPoint" />
            <mxPoint x="455" y="180" as="sourcePoint" />
            <Array as="points">
              <mxPoint x="455" y="230" />
              <mxPoint x="500" y="230" />
            </Array>
          </mxGeometry>
        </mxCell>
        <mxCell id="F6PLgcAM8BDR_C2OyBRy-16" value="" style="edgeStyle=orthogonalEdgeStyle;rounded=0;orthogonalLoop=1;jettySize=auto;html=1;" edge="1" parent="1" source="F6PLgcAM8BDR_C2OyBRy-13" target="F6PLgcAM8BDR_C2OyBRy-15">
          <mxGeometry relative="1" as="geometry" />
        </mxCell>
        <mxCell id="F6PLgcAM8BDR_C2OyBRy-13" value="Green Filter &amp;amp; Binarization" style="rounded=1;whiteSpace=wrap;html=1;fillColor=#fcfe86;" vertex="1" parent="1">
          <mxGeometry x="440" y="250" width="120" height="60" as="geometry" />
        </mxCell>
        <mxCell id="F6PLgcAM8BDR_C2OyBRy-18" value="" style="edgeStyle=orthogonalEdgeStyle;rounded=0;orthogonalLoop=1;jettySize=auto;html=1;" edge="1" parent="1" source="F6PLgcAM8BDR_C2OyBRy-15">
          <mxGeometry relative="1" as="geometry">
            <mxPoint x="240" y="280" as="targetPoint" />
          </mxGeometry>
        </mxCell>
        <mxCell id="F6PLgcAM8BDR_C2OyBRy-15" value="Binarized Image" style="whiteSpace=wrap;html=1;rounded=1;fillColor=#9bfe71;" vertex="1" parent="1">
          <mxGeometry x="280" y="250" width="120" height="60" as="geometry" />
        </mxCell>
        <mxCell id="F6PLgcAM8BDR_C2OyBRy-23" style="edgeStyle=orthogonalEdgeStyle;rounded=0;orthogonalLoop=1;jettySize=auto;html=1;exitX=0.75;exitY=1;exitDx=0;exitDy=0;entryX=0.5;entryY=0;entryDx=0;entryDy=0;" edge="1" parent="1" source="F6PLgcAM8BDR_C2OyBRy-19" target="F6PLgcAM8BDR_C2OyBRy-21">
          <mxGeometry relative="1" as="geometry">
            <Array as="points">
              <mxPoint x="225" y="360" />
              <mxPoint x="180" y="360" />
            </Array>
          </mxGeometry>
        </mxCell>
        <mxCell id="F6PLgcAM8BDR_C2OyBRy-19" value="Processed Image 1&lt;div&gt;&lt;br&gt;&lt;/div&gt;" style="whiteSpace=wrap;html=1;aspect=fixed;fillColor=#b8e4ff;" vertex="1" parent="1">
          <mxGeometry x="180" y="250" width="60" height="60" as="geometry" />
        </mxCell>
        <mxCell id="F6PLgcAM8BDR_C2OyBRy-22" value="" style="edgeStyle=orthogonalEdgeStyle;rounded=0;orthogonalLoop=1;jettySize=auto;html=1;" edge="1" parent="1" source="F6PLgcAM8BDR_C2OyBRy-20" target="F6PLgcAM8BDR_C2OyBRy-21">
          <mxGeometry relative="1" as="geometry" />
        </mxCell>
        <mxCell id="F6PLgcAM8BDR_C2OyBRy-20" value="Processed Image 2" style="whiteSpace=wrap;html=1;aspect=fixed;direction=south;fillColor=#70b8f0;" vertex="1" parent="1">
          <mxGeometry x="150" y="290" width="60" height="60" as="geometry" />
        </mxCell>
        <mxCell id="F6PLgcAM8BDR_C2OyBRy-25" value="" style="edgeStyle=orthogonalEdgeStyle;rounded=0;orthogonalLoop=1;jettySize=auto;html=1;" edge="1" parent="1" source="F6PLgcAM8BDR_C2OyBRy-21" target="F6PLgcAM8BDR_C2OyBRy-24">
          <mxGeometry relative="1" as="geometry" />
        </mxCell>
        <mxCell id="F6PLgcAM8BDR_C2OyBRy-21" value="Tree Counting" style="rounded=1;whiteSpace=wrap;html=1;fillColor=#dcb4fd;" vertex="1" parent="1">
          <mxGeometry x="120" y="380" width="120" height="60" as="geometry" />
        </mxCell>
        <mxCell id="F6PLgcAM8BDR_C2OyBRy-27" value="" style="edgeStyle=orthogonalEdgeStyle;rounded=0;orthogonalLoop=1;jettySize=auto;html=1;" edge="1" parent="1" source="F6PLgcAM8BDR_C2OyBRy-24" target="F6PLgcAM8BDR_C2OyBRy-26">
          <mxGeometry relative="1" as="geometry" />
        </mxCell>
        <mxCell id="F6PLgcAM8BDR_C2OyBRy-24" value="Image Registration" style="whiteSpace=wrap;html=1;rounded=1;fillColor=#b8bcff;" vertex="1" parent="1">
          <mxGeometry x="280" y="380" width="120" height="60" as="geometry" />
        </mxCell>
        <mxCell id="F6PLgcAM8BDR_C2OyBRy-26" value="Image Difference" style="whiteSpace=wrap;html=1;rounded=1;fillColor=#b4e8fe;" vertex="1" parent="1">
          <mxGeometry x="440" y="380" width="120" height="60" as="geometry" />
        </mxCell>
      </root>
    </mxGraphModel>
  </diagram>
</mxfile>
